<svg xmlns="http://www.w3.org/2000/svg" viewBox="0 0 1842.09 960"><defs><style>.cls-1{fill:#9da3ac;}</style></defs><title>AWAIR Logo_g</title><g id="AWAIR_Business_Gray" data-name="AWAIR Business Gray"><g id="Gray_Logo" data-name="Gray Logo"><path class="cls-1" d="M720.56,720.25h-480v-480h480Zm-442-38h404v-404h-404Z"/><path class="cls-1" d="M480.57,373.84a21.16,21.16,0,1,0-21.16-21.16,21.16,21.16,0,0,0,21.16,21.16"/><path class="cls-1" d="M594.22,629a21.16,21.16,0,1,0-21.16-21.15A21.15,21.15,0,0,0,594.22,629"/><path class="cls-1" d="M366.91,629a21.16,21.16,0,1,0-21.15-21.15A21.15,21.15,0,0,0,366.91,629"/><path class="cls-1" d="M533.56,555.72a21.16,21.16,0,1,0-21.16-21.16,21.15,21.15,0,0,0,21.16,21.16"/><path class="cls-1" d="M427.58,555.82a21.16,21.16,0,1,0-21.16-21.15,21.15,21.15,0,0,0,21.16,21.15"/><path class="cls-1" d="M1639,399.29A19.33,19.33,0,1,1,1619.71,380,18.95,18.95,0,0,1,1639,399.29Zm-2.11,0a17.17,17.17,0,1,0-34.34,0c0,9.88,7.29,17.36,17.17,17.36S1636.88,409.17,1636.88,399.29Zm-8.44,9.88H1626l-4.61-8.73h-5.56v8.73h-2.3V388.45h7.39c3.93,0,6.61,2.49,6.61,5.85a5.6,5.6,0,0,1-3.93,5.76Zm-3.07-14.87c0-2.49-1.63-3.93-4.6-3.93h-5v8.06h5C1623.17,398.43,1625.37,397.37,1625.37,394.3Z"/><path class="cls-1" d="M923.59,389.34l-59,169h34.68l10.2-29.86h59.73l10,29.86h34.65l-59.25-169Zm36.73,111.14H918.77l21.13-60.79Z"/><path class="cls-1" d="M1310.78,389.34h-30.94l-59,169h34.67l10.2-29.86h59.74l10,29.86H1370l-58.87-167.88Zm5.78,111.14H1275l21.13-60.79Z"/><polygon class="cls-1" points="1187.08 389.34 1160.87 495.35 1130.18 389.34 1105.33 389.34 1074.63 495.34 1048.66 389.34 1014.01 389.34 1059.1 558.35 1086.81 558.35 1117.76 456.32 1148.68 558.35 1176.4 558.35 1221.73 389.34 1187.08 389.34"/><rect class="cls-1" x="1397.45" y="389.34" width="33.22" height="169.01"/><path class="cls-1" d="M1568.81,481.6l2.92-2a44.92,44.92,0,0,0,16.63-22.22,48.89,48.89,0,0,0,2.49-16.17,54.87,54.87,0,0,0-3.69-20.07,46.6,46.6,0,0,0-10.82-16.4A53.12,53.12,0,0,0,1559,393.53a61,61,0,0,0-23-4.15H1469.7v169h33.23V491.07h25.89c2.67,0,7.64,0,11.19-.14l22.06,67.4h34.67Zm-11.18-40.55c0,6.53-2.18,11.89-6.48,15.94s-10.14,6.08-17.31,6.08h-30.91V419h30.91c7.17,0,13,2.06,17.31,6.1s6.48,9.41,6.48,15.92"/></g></g></svg>